With: Richard Attenborough, Elizabeth Perkins and Dylan McDermott

Kris Kringle wordt door Macy's warenhuis ingehuurd als kerstman voor het kerstseizoen. Een gewetenloze schurkerige rivaal van Macy's stelt alles in het werk om het zo belangrijke en rijke warenhuis over te nemen. Daarnaast probeert hij ook Kris in diskrediet te brengen.

A little girl discovers dreams do come true if you really believe. Six-year-old Susan has doubts about childhood's most enduring miracle - Santa Claus...

------------------------ Dutch Friends ------------------------
-- Bezoek ook eens mijn vrienden op: http://www.Film-Test.nl --
----- voor mijn Nederlandse Sync. ondertitels ---- en meer ----
------- http://www.Film-Test.nl ---- voor Films en meer -------
---------------------------------------------------------------

General:

Complete name                    : Miracle on 34th Street\Miracle on 34th Street.avi
Format                           : AVI
Format/Info                      : Audio Video Interleave
File size                        : 1.42 GiB
Duration                         : 1h 49mn
Overall bit rate                 : 1 862 Kbps

Video:

Format                           : MPEG-4 Visual
Format profile                   : Simple@L3
Format settings, BVOP            : No
Format settings, QPel            : No
Format settings, GMC             : No warppoints
Format settings, Matrix          : Default (H.263)
Codec ID                         : XVID
Codec ID/Hint                    : XviD
Duration                         : 1h 49mn
Bit rate                         : 1 467 Kbps
Width                            : 652 pixels
Height                           : 352 pixels
Display aspect ratio             : 1.852
Frame rate                       : 25.000 fps
Color space                      : YUV
Chroma subsampling               : 4:2:0
Bit depth                        : 8 bits
Scan type                        : Progressive
Compression mode                 : Lossy
Bits/(Pixel*Frame)               : 0.256
Stream size                      : 1.12 GiB (79%)
Writing library                  : XviD 1.1.2 (UTC 2006-11-01)

Audio:

Format                           : AC-3
Format/Info                      : Audio Coding 3
Mode extension                   : CM (complete main)
Codec ID                         : 2000
Duration                         : 1h 49mn
Bit rate mode                    : Constant
Bit rate                         : 384 Kbps
Channel(s)                       : 5 channels
Channel positions                : Front: L C R, Side: L R
Sampling rate                    : 48.0 KHz
Bit depth                        : 16 bits
Compression mode                 : Lossy
Stream size                      : 300 MiB (21%)
Alignment                        : Aligned on interleaves
Interleave, duration             : 32 ms (0.80 video frame)
Interleave, preload duration     : 32 ms
